<?xml version="1.0" encoding="UTF-8" standalone="no"?>
<!DOCTYPE svg PUBLIC "-//W3C//DTD SVG 1.1//EN"
 "http://www.w3.org/Graphics/SVG/1.1/DTD/svg11.dtd">
<!-- Generated by graphviz version 2.40.1 (20161225.0304)
 -->
<!-- Title: G Pages: 1 -->
<svg width="636pt" height="588pt"
 viewBox="0.00 0.00 636.00 588.00" xmlns="http://www.w3.org/2000/svg" xmlns:xlink="http://www.w3.org/1999/xlink">
<g id="graph0" class="graph" transform="scale(1 1) rotate(0) translate(4 584)">
<title>G</title>
<polygon fill="#ffffff" stroke="transparent" points="-4,4 -4,-584 632,-584 632,4 -4,4"/>
<!-- all -->
<g id="node1" class="node">
<title>all</title>
<polygon fill="none" stroke="#000000" points="67,-495 0,-495 0,-459 67,-459 67,-495"/>
<text text-anchor="middle" x="33.5" y="-473.3" font-family="Times,serif" font-size="14.00" fill="#000000">CMOCK</text>
</g>
<!-- install -->
<g id="node2" class="node">
<title>install</title>
<polygon fill="none" stroke="#000000" points="448,-580 103,-580 103,-542 448,-542 448,-580"/>
<text text-anchor="middle" x="275.5" y="-564.8" font-family="Times,serif" font-size="14.00" fill="#000000">Install:</text>
<text text-anchor="middle" x="275.5" y="-549.8" font-family="Times,serif" font-size="14.00" fill="#000000">sudo cp cmock /usr/bin &amp;&amp; sudo chmod +x /usr/bin/cmock</text>
</g>
<!-- all&#45;&gt;install -->
<g id="edge1" class="edge">
<title>all&#45;&gt;install</title>
<path fill="none" stroke="#000000" d="M50.6169,-495.092C63.7193,-507.7867 82.905,-524.0363 103,-533 107.442,-534.9814 112.0041,-536.8245 116.6539,-538.5387"/>
<polygon fill="#000000" stroke="#000000" points="115.7161,-541.9178 126.3108,-541.8796 118.0047,-535.3025 115.7161,-541.9178"/>
</g>
<!-- usage -->
<g id="node3" class="node">
<title>usage</title>
<polygon fill="none" stroke="#000000" points="329.5,-524 221.5,-524 221.5,-486 329.5,-486 329.5,-524"/>
<text text-anchor="middle" x="275.5" y="-508.8" font-family="Times,serif" font-size="14.00" fill="#000000">Usage:</text>
<text text-anchor="middle" x="275.5" y="-493.8" font-family="Times,serif" font-size="14.00" fill="#000000">cmock &lt;base&gt;.o</text>
</g>
<!-- all&#45;&gt;usage -->
<g id="edge2" class="edge">
<title>all&#45;&gt;usage</title>
<path fill="none" stroke="#000000" d="M67.1491,-480.8933C104.2945,-485.1911 164.9569,-492.2099 211.2706,-497.5685"/>
<polygon fill="#000000" stroke="#000000" points="210.8827,-501.0469 221.2187,-498.7195 211.6873,-494.0933 210.8827,-501.0469"/>
</g>
<!-- mock -->
<g id="node4" class="node">
<title>mock</title>
<polygon fill="none" stroke="#000000" points="326,-468 225,-468 225,-432 326,-432 326,-468"/>
<text text-anchor="middle" x="275.5" y="-446.3" font-family="Times,serif" font-size="14.00" fill="#000000">Mock Interface</text>
</g>
<!-- all&#45;&gt;mock -->
<g id="edge3" class="edge">
<title>all&#45;&gt;mock</title>
<path fill="none" stroke="#000000" d="M67.1491,-473.2458C105.2625,-468.9934 168.1344,-461.9788 214.8613,-456.7655"/>
<polygon fill="#000000" stroke="#000000" points="215.32,-460.2361 224.8702,-455.6488 214.5437,-453.2793 215.32,-460.2361"/>
</g>
<!-- utest -->
<g id="node5" class="node">
<title>utest</title>
<polygon fill="none" stroke="#000000" points="335,-225 216,-225 216,-189 335,-189 335,-225"/>
<text text-anchor="middle" x="275.5" y="-203.3" font-family="Times,serif" font-size="14.00" fill="#000000">Unit Test Interface</text>
</g>
<!-- all&#45;&gt;utest -->
<g id="edge4" class="edge">
<title>all&#45;&gt;utest</title>
<path fill="none" stroke="#000000" d="M49.7541,-458.8653C91.7733,-411.9843 204.0957,-286.666 252.634,-232.5116"/>
<polygon fill="#000000" stroke="#000000" points="255.2486,-234.8385 259.3167,-225.0558 250.0359,-230.1664 255.2486,-234.8385"/>
</g>
<!-- cmock_restore -->
<g id="node6" class="node">
<title>cmock_restore</title>
<polygon fill="none" stroke="#000000" points="604.5,-576 507.5,-576 507.5,-540 604.5,-540 604.5,-576"/>
<text text-anchor="middle" x="556" y="-554.3" font-family="Times,serif" font-size="14.00" fill="#000000">cmock_restore</text>
</g>
<!-- mock&#45;&gt;cmock_restore -->
<g id="edge5" class="edge">
<title>mock&#45;&gt;cmock_restore</title>
<path fill="none" stroke="#000000" d="M326.0839,-447.4965C362.6304,-448.0368 411.7388,-453.8074 448,-477 472.2993,-492.5418 461.4051,-513.0703 484,-531 488.3137,-534.4231 493.1067,-537.444 498.1124,-540.1036"/>
<polygon fill="#000000" stroke="#000000" points="496.765,-543.3391 507.295,-544.5092 499.7931,-537.0279 496.765,-543.3391"/>
</g>
<!-- CMOCK_CALL -->
<g id="node7" class="node">
<title>CMOCK_CALL</title>
<polygon fill="none" stroke="#000000" points="610.5,-522 501.5,-522 501.5,-486 610.5,-486 610.5,-522"/>
<text text-anchor="middle" x="556" y="-500.3" font-family="Times,serif" font-size="14.00" fill="#000000">CMOCK_CALL</text>
</g>
<!-- mock&#45;&gt;CMOCK_CALL -->
<g id="edge6" class="edge">
<title>mock&#45;&gt;CMOCK_CALL</title>
<path fill="none" stroke="#000000" d="M326.2854,-456.7271C360.7596,-461.5926 407.3006,-468.7447 448,-477 462.1587,-479.8719 477.2569,-483.3686 491.5389,-486.8805"/>
<polygon fill="#000000" stroke="#000000" points="490.7248,-490.2846 501.2744,-489.3067 492.4175,-483.4923 490.7248,-490.2846"/>
</g>
<!-- CMOCK_FUNC_VAL -->
<g id="node8" class="node">
<title>CMOCK_FUNC_VAL</title>
<polygon fill="none" stroke="#000000" points="628,-468 484,-468 484,-432 628,-432 628,-468"/>
<text text-anchor="middle" x="556" y="-446.3" font-family="Times,serif" font-size="14.00" fill="#000000">CMOCK_FUNC_VAL</text>
</g>
<!-- mock&#45;&gt;CMOCK_FUNC_VAL -->
<g id="edge7" class="edge">
<title>mock&#45;&gt;CMOCK_FUNC_VAL</title>
<path fill="none" stroke="#000000" d="M326.2964,-450C367.4188,-450 426.1503,-450 473.9313,-450"/>
<polygon fill="#000000" stroke="#000000" points="473.9508,-453.5001 483.9507,-450 473.9507,-446.5001 473.9508,-453.5001"/>
</g>
<!-- CMOCK_FUNC -->
<g id="node9" class="node">
<title>CMOCK_FUNC</title>
<polygon fill="none" stroke="#000000" points="611,-414 501,-414 501,-378 611,-378 611,-414"/>
<text text-anchor="middle" x="556" y="-392.3" font-family="Times,serif" font-size="14.00" fill="#000000">CMOCK_FUNC</text>
</g>
<!-- mock&#45;&gt;CMOCK_FUNC -->
<g id="edge8" class="edge">
<title>mock&#45;&gt;CMOCK_FUNC</title>
<path fill="none" stroke="#000000" d="M326.2964,-440.221C372.3789,-431.3495 440.5748,-418.2209 490.6931,-408.5725"/>
<polygon fill="#000000" stroke="#000000" points="491.623,-411.9578 500.781,-406.6304 490.2997,-405.084 491.623,-411.9578"/>
</g>
<!-- cmock_result -->
<g id="node10" class="node">
<title>cmock_result</title>
<polygon fill="none" stroke="#000000" points="601,-360 511,-360 511,-324 601,-324 601,-360"/>
<text text-anchor="middle" x="556" y="-338.3" font-family="Times,serif" font-size="14.00" fill="#000000">cmock_result</text>
</g>
<!-- utest&#45;&gt;cmock_result -->
<g id="edge9" class="edge">
<title>utest&#45;&gt;cmock_result</title>
<path fill="none" stroke="#000000" d="M307.4188,-225.0522C347.8336,-247.5535 419.9297,-286.5146 484,-315 489.4704,-317.4321 495.2335,-319.8406 501.0191,-322.1592"/>
<polygon fill="#000000" stroke="#000000" points="500.1414,-325.5744 510.7291,-325.9646 502.6956,-319.057 500.1414,-325.5744"/>
</g>
<!-- CMOCK_RESULT -->
<g id="node11" class="node">
<title>CMOCK_RESULT</title>
<polygon fill="none" stroke="#000000" points="618.5,-306 493.5,-306 493.5,-270 618.5,-270 618.5,-306"/>
<text text-anchor="middle" x="556" y="-284.3" font-family="Times,serif" font-size="14.00" fill="#000000">CMOCK_RESULT</text>
</g>
<!-- utest&#45;&gt;CMOCK_RESULT -->
<g id="edge10" class="edge">
<title>utest&#45;&gt;CMOCK_RESULT</title>
<path fill="none" stroke="#000000" d="M335.3302,-224.2772C378.7419,-236.8132 437.6797,-253.8326 483.7247,-267.1291"/>
<polygon fill="#000000" stroke="#000000" points="482.7658,-270.4951 493.3443,-269.9069 484.7079,-263.7699 482.7658,-270.4951"/>
</g>
<!-- CMOCK_INFO -->
<g id="node12" class="node">
<title>CMOCK_INFO</title>
<polygon fill="none" stroke="#000000" points="608.5,-252 503.5,-252 503.5,-216 608.5,-216 608.5,-252"/>
<text text-anchor="middle" x="556" y="-230.3" font-family="Times,serif" font-size="14.00" fill="#000000">CMOCK_INFO</text>
</g>
<!-- utest&#45;&gt;CMOCK_INFO -->
<g id="edge11" class="edge">
<title>utest&#45;&gt;CMOCK_INFO</title>
<path fill="none" stroke="#000000" d="M335.3302,-212.7591C381.799,-217.232 446.0575,-223.4173 493.2505,-227.9599"/>
<polygon fill="#000000" stroke="#000000" points="493.0601,-231.4577 503.3494,-228.932 493.7308,-224.4899 493.0601,-231.4577"/>
</g>
<!-- CMOCK_ERROR -->
<g id="node13" class="node">
<title>CMOCK_ERROR</title>
<polygon fill="none" stroke="#000000" points="615.5,-198 496.5,-198 496.5,-162 615.5,-162 615.5,-198"/>
<text text-anchor="middle" x="556" y="-176.3" font-family="Times,serif" font-size="14.00" fill="#000000">CMOCK_ERROR</text>
</g>
<!-- utest&#45;&gt;CMOCK_ERROR -->
<g id="edge12" class="edge">
<title>utest&#45;&gt;CMOCK_ERROR</title>
<path fill="none" stroke="#000000" d="M335.3302,-201.2409C379.5505,-196.9844 439.8806,-191.1773 486.2839,-186.7106"/>
<polygon fill="#000000" stroke="#000000" points="486.6431,-190.1923 496.2617,-185.7502 485.9723,-183.2245 486.6431,-190.1923"/>
</g>
<!-- CMOCK_ASSERT -->
<g id="node14" class="node">
<title>CMOCK_ASSERT</title>
<polygon fill="none" stroke="#000000" points="618,-144 494,-144 494,-108 618,-108 618,-144"/>
<text text-anchor="middle" x="556" y="-122.3" font-family="Times,serif" font-size="14.00" fill="#000000">CMOCK_ASSERT</text>
</g>
<!-- utest&#45;&gt;CMOCK_ASSERT -->
<g id="edge13" class="edge">
<title>utest&#45;&gt;CMOCK_ASSERT</title>
<path fill="none" stroke="#000000" d="M335.3302,-189.7228C378.8921,-177.1435 438.0877,-160.0495 484.2022,-146.7331"/>
<polygon fill="#000000" stroke="#000000" points="485.1972,-150.0888 493.8336,-143.9518 483.2551,-143.3636 485.1972,-150.0888"/>
</g>
<!-- CMOCK_CASE -->
<g id="node15" class="node">
<title>CMOCK_CASE</title>
<polygon fill="none" stroke="#000000" points="610,-90 502,-90 502,-54 610,-54 610,-90"/>
<text text-anchor="middle" x="556" y="-68.3" font-family="Times,serif" font-size="14.00" fill="#000000">CMOCK_CASE</text>
</g>
<!-- utest&#45;&gt;CMOCK_CASE -->
<g id="edge14" class="edge">
<title>utest&#45;&gt;CMOCK_CASE</title>
<path fill="none" stroke="#000000" d="M307.4188,-188.9478C347.8336,-166.4465 419.9297,-127.4854 484,-99 487.8426,-97.2916 491.8297,-95.5948 495.8675,-93.9327"/>
<polygon fill="#000000" stroke="#000000" points="497.3628,-97.1039 505.337,-90.1281 494.7531,-90.6085 497.3628,-97.1039"/>
</g>
<!-- CMOCK_RUN_CASE -->
<g id="node16" class="node">
<title>CMOCK_RUN_CASE</title>
<polygon fill="none" stroke="#000000" points="627.5,-36 484.5,-36 484.5,0 627.5,0 627.5,-36"/>
<text text-anchor="middle" x="556" y="-14.3" font-family="Times,serif" font-size="14.00" fill="#000000">CMOCK_RUN_CASE</text>
</g>
<!-- utest&#45;&gt;CMOCK_RUN_CASE -->
<g id="edge15" class="edge">
<title>utest&#45;&gt;CMOCK_RUN_CASE</title>
<path fill="none" stroke="#000000" d="M294.4928,-188.9785C329.5372,-156.508 407.7728,-87.6041 484,-45 486.8551,-43.4043 489.8231,-41.8667 492.8564,-40.3907"/>
<polygon fill="#000000" stroke="#000000" points="494.4723,-43.5002 502.104,-36.1512 491.5551,-37.137 494.4723,-43.5002"/>
</g>
</g>
</svg>
